<?xml version="1.0" encoding="iso-8859-1"?>
<!-- Uploaded to: SVG Repo, www.svgrepo.com, Generator: SVG Repo Mixer Tools -->
<!DOCTYPE svg PUBLIC "-//W3C//DTD SVG 1.1//EN" "http://www.w3.org/Graphics/SVG/1.1/DTD/svg11.dtd">
<svg fill="#000000" version="1.1" id="Capa_1" xmlns="http://www.w3.org/2000/svg" xmlns:xlink="http://www.w3.org/1999/xlink" 
	 width="800px" height="800px" viewBox="0 0 27.684 27.684"
	 xml:space="preserve">
<g>
	<g>
		<path d="M23.029,22.443c-0.162-0.912-1.002-1.776-1.91-1.971l-4.549-0.96c0.854-0.829,1.517-1.978,1.951-3.134
			c0.562-0.205,1.127-0.707,1.293-1.361c0.215-0.865-0.013-1.64-0.551-1.976v-0.613c0.489-1.48,0.747-3.9-1.482-5.203
			c-1-0.583-1.828-0.621-2.453-0.417C15.23,6.555,15.52,6.188,15.52,6.188c-0.513-0.019-0.783,0.255-0.896,0.41
			c-0.684-0.316-1.583-0.45-2.733-0.21c-3.687,0.775-4.159,5.606-3.483,6.664c-0.526,0.339-0.752,1.104-0.532,1.965
			c0.161,0.657,0.731,1.16,1.298,1.364c0.429,1.156,1.081,2.306,1.936,3.134l-4.541,0.956c-0.908,0.193-1.746,1.059-1.908,1.971
			l-0.61,3.436c-0.085,0.477,0.028,0.929,0.319,1.271c0.287,0.346,0.713,0.535,1.197,0.535h16.561c0.481,0,0.907-0.189,1.198-0.535
			c0.289-0.344,0.399-0.798,0.314-1.272L23.029,22.443z M9.758,15.691c-0.3,0.064-0.992-0.312-1.128-0.858
			c-0.142-0.56-0.009-1.082,0.296-1.167c0.089-0.025,0.184-0.005,0.277,0.044v-0.836c0.002-0.001,0.002-0.004,0.006-0.005
			c-0.004-0.012-0.004-0.027-0.006-0.041v-0.286c0.074-0.707,0.742-2.051,4.428-0.844c1.268,0.416,2.05-0.242,2.445-1.117
			c1.25,0.139,2.084,1.561,2.404,2.436v0.692c0.047-0.025,0.094-0.043,0.139-0.05c0,0.005,0,0.018-0.004,0.022
			c0.014,0.011,0.031,0.003,0.058-0.021c0.028,0,0.058-0.004,0.085,0.004c0.305,0.085,0.438,0.605,0.3,1.167
			c-0.138,0.543-0.825,0.916-1.124,0.858c-0.398,1.215-1.191,2.767-2.326,3.621c-0.134,0.104-0.273,0.19-0.423,0.273
			c-0.206,0.113-0.422,0.207-0.646,0.267c-0.223,0.062-0.455,0.099-0.696,0.099c-0.245,0-0.479-0.037-0.705-0.099
			c-0.228-0.06-0.44-0.151-0.647-0.266c-0.148-0.08-0.293-0.169-0.426-0.272C10.94,18.467,10.156,16.933,9.758,15.691z
			 M11.809,20.088c0.604,0.4,1.28,0.645,2.033,0.645c0.747,0,1.426-0.246,2.023-0.646l1.084,0.228
			c-0.871,0.709-1.941,1.096-3.084,1.096c-1.129,0-2.219-0.398-3.088-1.104L11.809,20.088z M8.781,26.982H5.562
			c-0.273,0-0.505-0.101-0.658-0.283c-0.121-0.146-0.166-0.336-0.162-0.539h4.039V26.982z M18.552,24.617
			c-0.196,0-0.353,0.158-0.353,0.354v2.012H9.484V24.97c0-0.194-0.156-0.354-0.352-0.354s-0.354,0.156-0.354,0.354v0.483H4.833
			l0.515-2.885c0.113-0.631,0.737-1.275,1.362-1.408l3.214-0.678c1.045,1.035,2.462,1.629,3.94,1.629
			c1.492,0,2.878-0.576,3.937-1.621l3.171,0.67c0.627,0.133,1.251,0.777,1.36,1.408l0.515,2.885h-3.942V24.97
			C18.904,24.775,18.746,24.617,18.552,24.617z M22.783,26.699c-0.155,0.183-0.391,0.283-0.66,0.283h-3.219V26.16h4.037
			C22.945,26.363,22.902,26.553,22.783,26.699z M2.537,18.162l1.988,0.422c-1.494-2.001-2.312-4.438-2.312-6.957
			C2.213,5.215,7.429,0,13.842,0s11.629,5.216,11.629,11.627c0,3.023-1.154,5.885-3.248,8.061l-0.594-0.572
			c1.945-2.021,3.018-4.68,3.018-7.487c0-5.957-4.848-10.803-10.805-10.803S3.037,5.671,3.037,11.628
			c0,2.405,0.806,4.721,2.266,6.608l0.466-2.166l0.806,0.172l-0.742,3.461l-3.467-0.732L2.537,18.162z"/>
	</g>
</g>
</svg>